# xmcd CD database file
#
# Track frame offsets:
#	150
#	25545
#	45884
#	67837
#	92592
#	119448
#	138889
#	159241
#	176431
#	208746
#	225615
#
# Disc length: 3323 seconds
#
# Revision: 0
# Processed by: cddbd v1.5.2PL0 Copyright (c) Steve Scherf et al.
# Submitted via: CDex 1.70beta2
#
DISCID=7b0cf90b
DTITLE=Phil DeGreg Trio - Down the Middle
DYEAR=2007
DGENRE=Jazz
TTITLE0=Con Alma
TTITLE1=Pick Yourself Up
TTITLE2=Blues on the Spot
TTITLE3=Urgency
TTITLE4=Bonita
TTITLE5=Down the Middle
TTITLE6=The Inside Track
TTITLE7=Palindrome
TTITLE8=I Concentrate On You
TTITLE9=Wail
TTITLE10=So In Love
EXTD=YEAR: 2007
EXTT0=
EXTT1=
EXTT2=
EXTT3=
EXTT4=
EXTT5=
EXTT6=
EXTT7=
EXTT8=
EXTT9=
EXTT10=
PLAYORDER=
